<?xml version="1.0" encoding="UTF-8" standalone="no"?>
<svg 
    role="img" 
    xmlns="http://www.w3.org/2000/svg" 
    width="1000mm"
    height="1000mm"
    viewBox="0 0 1000 1000"
    style="max-width:1.6em; height: auto;">
    
    <path 
        id="path" 
        style="opacity:1;vector-effect:none;fill:#ffffff;fill-opacity:1;"
        d=" M 665 375C 633 375 602 388 579 411C 556 434 543 465 543 498C 543 530 556 561 579 584C 602 607 633 620 665 620C 698 620 729 607 752 584C 775 561 788 530 788 498C 788 430 733 375 665 375C 665 375 665 375 665 375M 338 261C 390 261 440 278 481 310C 481 310 424 411 424 411C 401 388 370 375 338 375C 305 375 274 388 251 411C 228 434 215 465 215 498C 215 530 228 561 251 584C 274 607 305 620 338 620C 369 620 399 608 422 587C 422 587 480 686 480 686C 439 717 389 734 338 734C 275 734 215 709 171 665C 126 620 101 560 101 498C 101 367 207 261 338 261C 338 261 338 261 338 261M 665 261C 796 261 902 367 902 498C 902 628 796 734 665 734C 603 734 543 709 498 665C 454 620 429 560 429 498C 429 367 535 261 665 261C 665 261 665 261 665 261"
        transform="">
    </path>    
</svg>